<svg width="2162" height="191" viewBox="0 0 2162 191" fill="none" xmlns="http://www.w3.org/2000/svg">
<path d="M173.978 155.308C175.273 154.972 180.586 154.152 182.864 153.681C180.438 155.03 169.307 156.517 173.978 155.308ZM400.429 53.1205C398.522 53.6108 396.616 54.1022 394.709 54.5948C400.234 53.9391 407.611 52.7304 412.748 52.2163C413.588 52.133 411.508 53.0554 413.488 52.8054C415.47 52.5556 414.97 51.764 417.833 51.2722C421.046 50.7179 435.898 49.2758 441.011 48.5782C460.118 45.9437 479.397 42.9634 498.654 40.9436C478.9 44.0366 498.964 42.1788 504.482 41.2348C505.704 41.0284 505.319 39.4468 525.256 37.4776C537.924 36.248 526.507 39.8464 547.469 36.2927C531.064 36.5819 547.018 34.8413 559.778 33.3677C561.977 33.1066 579.749 31.3938 587.573 30.5015C590.25 30.1923 594.246 28.9358 597.798 28.544C600.243 28.2749 602.139 28.5344 605.767 28.1383C622.645 26.3021 639.394 24.627 656.4 23.1981C646.666 26.2498 664.28 23.3775 665.084 23.413C669.185 23.6156 650.893 25.4709 658.167 25.1617C668.279 24.1572 678.382 23.1825 688.477 22.2375C680.166 22.6975 699.29 19.493 702.905 19.8986C701.198 18.1041 749.282 17.7734 756.46 16.6684C757.959 16.4297 748.007 16.2077 770.973 14.9703C773.459 14.8403 772.56 15.4751 773.858 15.3296C774.64 15.2421 779.209 13.1048 784.356 13.7518C786.226 13.9957 774.5 15.9635 800.409 13.7459C789.971 12.5643 836.276 10.4373 844.749 10.4674C843.041 10.3182 841.333 10.1699 839.623 10.0224C848.047 10.1987 849.52 9.49348 851.41 9.41987C858.986 9.12767 869.626 9.1854 876.733 8.76245C885.067 8.2692 885.04 7.12242 894.77 7.09437C892.455 6.95323 890.139 6.81366 887.821 6.67564C894.533 6.4038 901.237 6.14504 907.933 5.89932C892.499 8.13267 911.282 5.81345 912.518 5.73103C914.495 5.58728 911.68 6.33408 914.985 6.10926C915.326 6.08177 914.806 5.51817 919.901 5.22973C930.54 4.63584 928.886 5.44679 933.349 5.25289C933.76 5.2332 932.293 4.7624 940.073 4.32632C964.774 2.9747 939.97 4.7271 939.02 4.84474C937.803 4.99457 946.26 6.83538 925.382 6.92384C932.384 6.87611 933.121 7.8238 933.913 7.81477C934.62 7.80223 946.829 7.18114 947.498 7.12543C953.485 6.56667 948.181 6.10284 949.346 5.93925C950.302 5.80197 965.02 6.1312 968.385 4.0196C975.462 5.6272 964.414 5.82042 952.633 6.54589C950.929 6.98564 963.882 6.88073 964.558 6.86C981.221 6.28382 971.943 5.08583 975.554 3.99238C977.451 3.421 984.266 4.23818 977.96 3.0799C993.061 2.45479 983.924 3.53597 984.904 3.62053C986.381 3.74518 991.648 3.19479 992.31 3.22768C993.282 3.27571 989.926 3.84699 993.753 3.8993C994.388 3.90455 1000.52 2.91339 992.571 2.75948C1003.18 2.56315 1002.28 1.90389 1005.92 3.19669C1013.13 0.365173 1011.28 4.61251 1014.17 4.68491C1021.9 4.8787 1019.6 2.86818 1020.01 2.75643C1022.81 2.02986 1044.13 2.26951 1049.38 1.8845C1047.33 3.4088 1032.52 2.23975 1029.2 2.61037C1018.18 3.8213 1044.78 3.01189 1036.8 5.06199C1040.15 4.47606 1043.49 3.89343 1046.83 3.31408C1053 4.40418 1044.31 5.07984 1060.81 4.35157C1063.49 3.26383 1049.14 4.71985 1052.01 3.85128C1053.7 3.33698 1063.27 3.07046 1063.46 2.81613C1063.64 2.50645 1054.99 3.01496 1056.35 2.52329C1059.33 1.43993 1090.84 1.95144 1066.87 2.85335C1073.56 2.73337 1077.03 4.6998 1082.81 3.99957C1086.59 3.5521 1065.28 1.00662 1097.2 1.16283C1097.9 2.10312 1084.42 1.57806 1084.08 1.65883C1083.59 1.77004 1086.04 3.88606 1086.47 3.98714C1087.98 4.29408 1120.54 2.86725 1127.37 3.94971C1124.67 2.70575 1151.83 3.67709 1154.76 3.32407C1155.55 3.22103 1152.61 2.45674 1153.45 2.3777C1158.61 1.90166 1173.06 3.31263 1179.66 3.39799C1187.07 3.49005 1186.14 2.83064 1186.55 2.83432C1189.81 2.89798 1187.2 3.32088 1189.2 3.33662C1192.22 3.34895 1212.84 3.67671 1213.86 3.60829C1214.17 3.58357 1210.82 2.7881 1215.31 2.7077C1216.08 2.69703 1215.59 3.56433 1228.84 3.39588C1244.89 3.20936 1217.76 2.10542 1224.43 1.2883C1234.63 2.77904 1234.4 1.46984 1237.2 1.62256C1238.18 1.67806 1245.42 2.92809 1253.28 3.0298C1247.63 3.08786 1241.98 3.15564 1236.31 3.23317C1241.88 3.52763 1252.67 3.50848 1257.22 3.83574C1259.44 3.99433 1257.59 4.86766 1262.42 4.95641C1263.44 4.97266 1267.58 2.82741 1254.88 3.5413C1253.89 2.72097 1259.91 3.37497 1262.7 3.21699C1263.13 3.19205 1264.83 1.89868 1268.37 2.8154C1269.21 3.0479 1259.84 6.66914 1283.87 4.50574C1284.64 4.43679 1281.97 3.87477 1282.73 3.79508C1283.25 3.74023 1289.35 4.1126 1290.02 4.06447C1290.71 4.01064 1287.78 3.39281 1288.61 3.31238C1292.83 2.89721 1298.28 5.17155 1289.62 4.75117C1292.51 5.09703 1295.4 5.44546 1298.28 5.79646C1295.25 4.11243 1302.77 5.48857 1306.89 5.57792C1332.92 6.16292 1315.53 4.52981 1320.02 4.15038C1327.23 3.5553 1321.66 6.06519 1332.32 5.65374C1333.3 5.62176 1320.53 3.94525 1345.55 5.60444C1341.85 5.496 1338.16 5.39185 1334.46 5.29196C1336.53 6.90722 1347.8 5.72482 1348.66 5.74284C1358.46 5.95432 1351.83 6.20998 1366.37 6.07743C1367.67 6.06616 1370.47 6.57607 1373.24 6.51907C1384.81 6.28915 1358.12 5.33128 1357.42 4.69596C1357.07 4.35416 1385.82 5.78909 1386.89 6.01128C1391.09 6.86255 1373.7 5.6374 1376.98 6.59955C1378.23 6.89972 1419.5 8.50814 1427.6 9.36188C1437.03 10.2926 1441.12 12.6478 1441.33 10.314C1443.81 12.7737 1446.36 11.3674 1447.58 11.4621C1462.39 12.649 1462.41 12.6791 1475.05 13.3517C1477.84 13.5031 1480.13 14.3695 1481.12 14.3239C1481.7 14.2949 1480.69 13.4721 1483.51 13.4482C1487.46 13.4049 1510.59 15.9698 1512.33 16.5402C1513.99 17.0851 1502.49 15.9339 1504.5 16.7754C1512.72 17.4923 1521.1 18.0097 1529.56 18.8024C1533.09 19.136 1531.23 19.4538 1532.76 19.5941C1533.41 19.6516 1545.61 20.3038 1545.11 20.0873C1544.01 19.5351 1506.19 16.641 1516.21 16.6487C1518.15 16.6447 1524.85 18.3003 1523.88 16.8854C1557.52 20.0055 1590.91 23.5358 1624.31 27.5439C1605.22 26.4209 1583.04 23.2521 1563.23 21.4889C1560.49 21.2395 1551.2 20.2576 1552.27 21.0318C1569.22 22.7428 1590.71 24.5094 1607.15 26.7032C1607.67 26.7735 1605.67 27.1689 1607.64 27.4734C1611.31 28.0377 1623.36 28.3738 1625.33 28.8514C1625.67 28.9466 1618.8 28.9888 1620.8 29.7195C1625.96 31.5944 1627.61 28.8867 1632.15 29.4332C1635.49 29.8178 1659.45 34.0336 1665.44 33.9121C1671.89 33.7523 1647.89 31.2298 1649.73 30.6947C1666.12 31.8595 1682.32 34.7306 1697.37 36.6381C1697.63 36.671 1695.41 35.7697 1698.78 36.1337C1704.59 36.764 1706.14 37.8371 1709.02 38.3667C1712.15 38.9355 1723.21 40.3605 1724.63 40.8806C1724.82 40.9474 1722.47 41.4669 1722.12 41.4427C1717.27 41.11 1715.71 39.7892 1715.27 39.7139C1713.63 39.4437 1711.95 39.6357 1710.45 39.4039C1707.97 39.0221 1706.66 38.4503 1703.38 37.972C1701.17 37.6489 1703.2 38.6749 1701.08 38.3554C1700.31 38.2332 1692.1 35.4263 1691.08 37.0482C1690.43 37.3349 1760.51 47.9815 1767.22 48.8125C1761.13 47.6473 1755.46 46.5645 1749.53 45.4608C1761.33 47.7401 1776.34 48.7286 1777.04 50.9246C1821.98 58.3157 1866.03 66.613 1911.12 76.5636C1918.97 78.461 1914.4 78.7883 1927.34 81.2927C1924.12 80.135 1920.88 78.9821 1917.63 77.8341C1923.96 79.4663 1953.93 87.0029 1958.67 87.9357C1959.3 88.0526 1960.46 87.0921 1967.82 88.8011C1974.33 90.3231 1975.14 91.4564 1978.54 92.4927C1981.36 93.3538 1984.74 93.9827 1985.63 94.2641C1986.31 94.4786 1986.44 95.078 1988.05 95.5951C1993.14 97.2246 1989.35 94.6422 1994.01 97.694C1992.75 97.4323 1991.49 97.1717 1990.23 96.9118C1996.39 98.7821 2004.57 101.808 1995.39 99.775C1993.81 99.4274 1995.29 99.2707 1994.12 98.9631C1948.78 87.4385 1984.43 97.4896 2000.84 101.065C2004.8 102.892 2027.43 108.708 2028.07 109.091C2029.03 109.6 2025.06 109.112 2029.89 111.063C2031.05 111.434 2061.65 120.186 2050.39 117.878C2048.11 117.39 2033.47 112.81 2029.86 111.822C2037.88 115.825 2057.88 119.411 2059.97 120.156C2068.56 123.096 2042.89 116.367 2062.35 122.612C2077.17 127.459 2063.56 121.978 2069.41 123.341C2072.5 124.01 2089.55 130.923 2089.53 129.276C2095.48 131.107 2091.76 130.737 2092.47 131.039C2093.18 131.324 2104.79 134.826 2108.32 136.451C2108.74 136.648 2107.07 136.928 2107.51 137.154C2108.39 137.574 2119.2 141.302 2119.66 141.412C2119.92 141.456 2117.64 139.852 2118.74 140.07C2120.01 140.303 2130.8 144.514 2131.42 144.545C2132.4 144.56 2119.02 139.785 2121.51 139.86C2127.64 142.321 2137.69 145.589 2141.86 146.537C2140.83 146.329 2134.99 144.094 2132.96 143.257C2134.37 142.509 2146.87 147.397 2142.26 146.601C2145.14 147.195 2143.39 146.223 2145.09 146.381C2145.53 146.426 2149.36 147.92 2150.17 148.025C2150.28 148.025 2146.51 146.043 2147.39 146.134C2149.01 146.289 2160.42 151.032 2161.27 151.53C2163.76 152.905 2154.37 149.449 2153.38 149.603C2153.26 149.626 2160.77 153.76 2160.84 153.893C2160.96 154.932 2152.45 150.723 2153.13 151.907C2155.24 152.954 2157.34 154.005 2159.43 155.058C2150.87 152.382 2135.17 145.78 2130.62 145.114C2143.68 149.738 2156.58 155.088 2155.72 157.074C2155.37 157.909 2149.83 156.229 2149.95 156.53C2150.44 157.612 2158.15 159.803 2158.39 159.959C2158.59 160.098 2158.68 160.186 2158.66 160.23C2158.66 160.23 2158.66 160.23 2158.66 160.23C2158.49 160.67 2147.85 156.691 2147.21 156.69C2146.17 156.696 2150.28 160.097 2150.13 160.426C2149.95 160.422 2142.26 157.748 2144.57 159.35C2146.93 160.964 2153.46 163.643 2153.65 163.8C2154.77 164.653 2143.19 160.318 2142.73 160.397C2142.52 160.428 2148.45 163.555 2148.54 163.814C2148.62 164.06 2143.78 162.572 2141.68 162.42C2140.12 162.303 2144.02 164.243 2143.28 164.029C2142.79 163.865 2131.79 159.537 2131.19 159.411C2130.33 159.211 2132.73 160.737 2132.3 160.721C2131.69 160.701 2128.17 159.131 2128.57 159.505C2128.91 159.775 2141.97 166.961 2141.64 167.412C2141.19 168.159 2127.44 160.572 2139.63 169.111C2139.72 169.168 2143.05 170.239 2143.13 170.296C2144.88 171.692 2134.18 168.427 2146.87 173.376C2122.87 164.936 2143.48 173.416 2139.43 173.389C2137.89 173.372 2128.57 169.965 2128.47 170.033C2129.12 171.056 2132.28 171.686 2133.15 172.408C2133.64 172.804 2125.05 170.289 2126.74 171.478C2127.64 172.085 2136.43 175.436 2136.75 175.63C2140 177.434 2135.61 176.226 2136.24 176.837C2136.67 177.242 2141.85 179.349 2141.97 179.442C2142.16 179.605 2134.77 177.608 2133.16 177.322C2131.94 177.103 2136.03 179.133 2135.2 178.921C2130.27 177.632 2120.64 172.173 2129.62 178.105C2130.17 178.468 2133.86 179.864 2133.96 179.934C2135.98 181.43 2129.22 178.811 2127.8 178.833C2125.39 178.865 2135.32 182.208 2126.98 179.632C2132.85 182.564 2136.21 183.872 2143.19 186.548C2123.72 179.168 2115.82 178.702 2137.49 187.209C2130.69 184.432 2130.93 185.98 2128.87 185.189C2127.62 184.692 2117.95 179.55 2121.54 184.111C2121.99 184.679 2128.27 186.62 2126.08 186.581C2111.44 180.709 2125.62 186.906 2125.57 187.009C2124.79 188.409 2089.27 173.714 2082.94 171.945C2075.6 169.664 2068.55 168.795 2066.93 168.265C2061.6 166.519 2066.25 167.303 2065.13 166.668C2063.89 165.969 2049.01 162.629 2048.23 162.329C2045.45 161.153 2048.6 161.269 2048.32 161.136C2044.99 159.523 2024.57 154.041 2018.75 152.206C2018.8 152.77 2030.33 156.191 2022.88 154.91C2014.1 153.404 2014.59 151.099 2014.33 150.914C1976.88 140.239 1937.94 130.708 1899.66 122.45C1899.99 123.774 1924.84 128.343 1925.65 128.739C1928.46 130.301 1886.66 121.023 1881.17 119.55C1885.14 120.651 1889.08 121.759 1893 122.875C1886.02 122.854 1870.83 117.785 1861.13 116.529C1857.95 116.111 1863.87 117.854 1863.73 117.868C1860.11 117.717 1854.51 116.178 1858.9 116.27C1850.12 115.285 1851.53 114.75 1844.86 113.408C1844.52 113.34 1847.28 114.462 1841.94 113.692C1839.45 113.324 1826.09 110.845 1824.19 111.028C1823.41 111.104 1829.8 114.582 1830.99 112.818C1845.31 116.459 1835.79 112.806 1841.4 113.908C1842.24 114.086 1840.12 114.76 1854.21 116.972C1851.2 118.372 1835.27 113.84 1832.4 113.563C1826.56 112.961 1850.09 118.412 1854.62 117.771C1852.32 118.885 1856.25 118.295 1861.43 119.387C1867.09 120.586 1864.51 120.536 1867.6 121.161C1876.27 122.928 1872.9 121.137 1879.81 123.558C1873.51 119.163 1892.03 125.686 1897.27 127.654C1888.35 125.885 1879.32 124.152 1870.19 122.458C1870.68 122.719 1871.17 122.98 1871.66 123.241C1869.28 122.734 1866.84 122.218 1864.56 121.74C1864.96 121.665 1865.36 121.59 1865.77 121.516C1853.62 120.095 1850.84 118.451 1849.86 118.244C1837.24 115.664 1822.18 112.893 1809.17 110.601C1807.24 110.267 1808.44 111.452 1794.48 108.274C1790.02 107.265 1794.4 107.227 1789.27 106.477C1782.51 107.463 1782.89 105.842 1780.98 105.522C1775.48 104.615 1772.01 104.582 1771.5 104.504C1764.69 103.482 1754.47 101.788 1747.2 100.761C1747.06 100.747 1750.81 101.969 1746.04 101.049C1744.38 100.723 1729.64 95.7191 1716.04 94.7035C1719.51 95.3828 1722.97 96.0668 1726.43 96.7553C1722.44 95.8756 1693.35 92.5459 1700.33 94.2575C1704.64 95.2924 1715.46 95.0245 1716.37 96.8747C1706.59 94.8476 1654.19 88.8314 1649.89 88.0197C1649.32 87.8944 1652.92 87.7732 1652.13 87.6075C1651.54 87.4755 1639.29 86.1475 1637.68 85.7516C1636.72 85.5127 1642.18 85.8129 1641.76 85.5643C1641.34 85.3631 1626.26 83.3819 1625.35 83.984C1629.06 84.119 1639.42 85.5659 1633.88 85.5106C1633.18 85.5016 1629.62 84.6439 1628.76 84.6389C1620.75 84.5706 1644.47 87.0909 1648.24 87.5737C1632.83 86.5999 1610.5 83.0442 1592.94 81.811C1585.97 80.5086 1603.43 82.0216 1595.54 80.7181C1579.14 78.0294 1591.07 81.0547 1590.55 81.0739C1586.41 81.2221 1572.67 76.7273 1572.42 79.0877C1566.51 78.1535 1568.49 78.0418 1560.11 77.5557C1561.2 77.8228 1562.28 78.0904 1563.36 78.3583C1554.01 78.8268 1534.56 73.6144 1536.05 73.4884C1540.11 73.133 1550.29 75.1643 1551.16 75.2211C1552.45 75.3053 1556.3 73.2257 1570.18 76.728C1576.12 75.6725 1547.9 73.5113 1560.83 73.6343C1552.23 72.9513 1516.25 68.6862 1510.89 69.0018C1510.28 69.0457 1512.98 70.8709 1504.17 69.343C1500.01 68.6202 1510.13 69.4115 1508.25 68.8947C1502.69 67.1191 1421.35 62.1575 1406.14 61.5884C1405.14 61.5344 1405.54 61.0573 1404.56 61.0072C1401.54 60.8505 1390.48 60.9994 1385.05 60.497C1396.27 61.9961 1374.34 60.9411 1368.85 60.5946C1360.54 60.0497 1361.09 59.2019 1357.49 58.8526C1343.64 57.501 1321.86 58.7404 1310.98 56.4291C1311.46 58.3719 1292.2 54.8525 1283.44 54.5987C1276.56 54.3871 1266.51 55.4085 1275.8 56.4314C1263.9 56.0221 1251.31 56.095 1240.04 55.9961C1238.18 55.9802 1240.76 55.4578 1237.58 55.4492C1237.29 55.4528 1236.88 56.0044 1234.15 56.0131C1211.83 56.1224 1222.72 55.1238 1218.55 54.7054C1216.22 54.4751 1214.5 54.3538 1213.24 54.3043C1226.18 54.3667 1241.29 54.4361 1245.35 54.5061C1241.86 53.182 1216.41 54.2159 1209 53.8077C1208.74 53.7923 1209.65 53.1225 1209.39 53.1143C1209.38 53.1142 1209.37 53.1142 1209.37 53.1141C1206.59 53.017 1188.78 53.0855 1192.44 53.9369C1193.42 54.1634 1201.62 54.2384 1211.31 54.2942C1208.69 54.412 1210.64 55.201 1210.17 55.2275C1204.56 55.5261 1190.78 54.6375 1185.88 54.5024C1184.75 54.4714 1184.83 54.9611 1184.65 54.9608C1180.19 54.816 1182.03 53.4327 1177.44 54.8422C1169.36 53.0462 1192.59 54.6921 1190.95 53.5581C1189.71 52.6111 1138.11 52.895 1138.35 54.3275C1138.17 54.1812 1137.47 54.0002 1136.02 53.796C1132.82 53.3367 1118.5 53.5395 1116.02 53.8123C1115.6 53.8645 1115.78 55.1941 1115.26 55.2095C1113.97 55.2414 1096.4 54.3342 1089.83 55.2034C1093.38 55.3502 1096.93 55.5008 1100.48 55.6551C1079.05 55.8808 1082.36 56.2631 1089.51 56.5718C1089.87 56.5714 1090.22 56.6181 1090.56 56.6197C1096.1 56.8515 1103.18 57.0732 1103.29 57.1778C1103.67 57.5449 1067.49 58.2072 1074.45 56.8943C1075.41 56.7056 1092.08 57.0494 1083.81 56.2701C1082.37 56.1305 1071.68 56.5287 1071.11 56.4427C1067.35 55.8437 1090.67 54.6758 1087.85 53.8015C1082.13 54.7403 1074.9 54.3762 1068.38 54.7025C1065.42 54.8502 1064.7 55.5296 1064.33 55.548C1058.87 55.8119 1061.93 55.0623 1060.1 55.1103C1059.12 55.1359 1048.36 56.8221 1050.36 54.7335C1014.75 56.9878 1040.58 56.3928 1062.35 55.9137C1055.49 56.7703 1041.96 56.67 1035.88 56.9799C1033.7 57.0907 1035.01 57.7462 1031.33 57.9658C1023.67 58.3874 987.626 58.5901 978.212 58.7486C983.979 58.3189 982.268 57.6277 977.81 57.825C973.351 58.0247 977.131 58.8955 976.265 59.0313C975.344 59.1629 954.372 59.4326 950.875 59.7065C966.659 58.7583 963.074 58.1426 949.654 58.57C951.586 58.2816 953.518 57.9942 955.449 57.708C947.6 58.2938 930.992 57.8326 926.531 58.3673C925.826 58.4517 928.397 58.9681 928 59.0156C924.056 59.4438 910.537 59.4094 909.916 59.6554C909.392 59.8567 915.173 60.1189 913.048 60.4737C912.605 60.5481 907.016 59.9551 901.552 60.4232C899.525 60.5961 900.776 61.1288 900.266 61.1874C896.015 61.6768 898.486 60.5573 890.693 61.1009C884.982 61.5035 880.772 62.6907 872.842 62.7863C898.872 62.6853 877.029 63.2744 866.174 64.2441C864.448 64.3996 865.945 65.3859 855.584 65.4408C877.536 62.2817 849.237 64.7542 843.47 65.0866C843.153 65.0987 843.003 64.3976 840.163 64.5539C839.923 64.5688 840.296 65.0256 837.66 65.2192C812.636 67.0855 828.616 65.5747 823.828 65.394C821.789 65.3158 809.633 66.7679 806.344 67.0038C805.588 67.0552 805.903 66.5356 802.978 66.7484C797.802 67.1266 793.195 67.97 789.777 68.2468C789.379 68.2773 789.304 67.4929 782.841 68.1988C781.035 68.3965 779.022 68.8178 781.609 68.8619C790.227 68.9947 806.443 66.6182 816.168 66.7468C825.043 66.8507 797.194 68.7104 795.735 68.8312C795.203 68.8694 800.624 68.1135 795.084 68.4099C790.353 68.6647 781.796 70.6141 774.794 70.8206C774.259 70.8361 768.579 70.0942 768.832 70.0093C769.063 69.9417 777.641 69.0762 776.368 68.8348C776.217 68.8069 770.755 69.2064 770.024 69.012C769.129 68.7745 766.557 65.9967 765.383 66.0084C762.372 66.0458 764.373 66.5751 762.43 66.6712C758.268 66.8733 743.761 67.1016 743.368 68.1644C745.76 68.0402 748.15 67.9178 750.539 67.797C737.275 68.9194 742.965 68.924 741.1 69.2598C739.09 69.6253 739.59 68.6813 735.105 68.9499C734.133 68.9997 715.395 70.7064 715.765 71.0627C726.09 69.6099 722.334 71.0384 722.814 71.018C724.637 70.9425 726.906 70.1323 729.344 69.9495C746.484 68.6871 729.285 71.0392 733.349 70.9714C734.748 70.9458 737.479 70.1959 738.071 70.177C739.997 70.1146 740.082 70.8084 741.357 70.6524C744.332 70.2897 740.771 69.5756 741.003 69.5061C743.624 68.6791 754.133 68.6485 747.71 70.2174C751.643 70.3051 752.002 68.9681 755.136 69.2556C761.365 69.8256 752.13 70.2508 749.644 70.6146C740.73 71.9204 738.033 71.6217 725.342 72.815C720.771 73.245 715.4 74.3255 713.278 74.5374C711.93 74.6676 699.148 73.5344 699.081 77.0122C694.169 77.0975 686.3 75.5007 681.268 76.0557C676.751 76.5553 678.299 77.6447 677.881 77.7295C677.241 77.8611 671.76 78.2605 669.924 78.6028C667.773 79.005 668.898 79.3697 665.473 79.8765C656.949 81.1403 657.056 79.8825 656.167 79.8834C645.847 79.9178 650.495 81.2628 648.239 81.6201C646.13 81.9332 616.474 84.1729 610.327 85.2812C612.83 84.7723 615.333 84.2652 617.835 83.7599C613.232 83.4442 608.564 85.2029 608.337 83.8233C607.65 86.1577 598.152 85.6335 595.35 85.9911C594.246 86.1322 594.373 86.5047 592.99 86.6683C587.588 87.3061 575.352 88.3294 572.436 88.8504C559.833 91.0793 592.447 88.9015 595.002 88.7409C589.891 89.236 561.011 92.9213 574.429 92.5345C576.503 92.4742 580.035 91.0743 581.185 90.9099C588.97 89.8056 582.923 91.3692 583.545 91.3883C584.601 91.4129 589.649 89.9914 591.016 89.9508C591.472 89.9364 588.646 91.058 596.094 90.2849C592.518 91.4494 571.51 93.0803 568.78 93.5821C567.807 93.7615 574.136 94.7448 556.02 95.1314C556.246 95.2642 556.472 95.3969 556.697 95.5297C546.72 96.7272 536.804 97.9466 526.853 99.1995C527.892 98.7102 533.395 97.3221 526.374 98.3137C522.332 98.8872 525.426 99.3304 525.059 99.3979C521.455 99.956 457.024 107.821 444.629 109.712C440.398 110.311 428.683 112.584 427.785 112.724C422.413 113.527 403.297 115.821 399.509 116.472C397.144 116.875 399.498 117.215 397.373 117.492C395.398 117.749 397.345 116.806 396.756 116.864C391.876 117.3 355.243 123.662 346.428 124.453C351.785 123.784 378.213 118.455 377.612 118.095C377.487 118.049 370.94 118.529 369.641 118.971C367.35 118.745 360.036 121.597 355.868 121.899C355.396 121.933 357.084 120.693 349.706 121.659C347.165 121.992 340.653 123.768 333.851 123.993C324.241 125.85 273.347 133.047 270.057 134.732C269.963 134.802 277.154 133.931 272.408 135.177C266.101 136.836 271.528 133.966 264.036 135.095C262.905 135.255 242.184 139.097 241.528 139.345C235.434 141.515 253.633 138.719 253.402 138.894C252.822 139.307 237.8 142.168 237.174 142.211C236.577 142.24 248.613 138.644 233.945 141.82C235.666 141.682 237.387 141.545 239.108 141.409C232.224 142.978 231.39 142.137 229.697 142.381C224.436 143.142 219.054 145.634 210.353 145.376C208.052 145.306 211.627 144.093 211.336 144.072C208.558 143.918 205.489 146.275 201.253 145.735C200.935 145.698 210.088 143.176 193.836 146.23C194.978 146.142 196.12 146.055 197.261 145.968C195.019 146.667 178.61 149.963 176.39 150.332C169.896 151.39 175.355 149.414 168.887 150.779C173.285 151.176 153.584 155.198 154.51 153.94C152.01 155.79 135.051 158.129 127.179 159.714C122.209 160.706 112.211 163.37 110.623 163.634C108.688 163.952 109.085 162.937 105.579 163.463C104.577 163.612 94.4087 166.426 85.173 167.442C83.379 167.64 79.3654 166.921 82.5489 165.842C87.9992 163.992 98.802 162.98 98.4817 162.116C98.1166 161.189 84.0357 164.772 80.1644 165.482C62.3504 168.73 72.3441 165.508 71.8223 165.296C70.4794 164.803 60.8217 166.938 60.405 166.962C58.6688 167.031 65.3846 164.938 65.3893 164.46C65.3842 163.837 55.8337 164.813 57.9073 164.148C60.8754 163.194 69.637 162.217 70.1713 162.058C77.1199 159.947 67.1259 160.678 64.3065 160.591C63.4511 160.561 66.6046 159.515 65.9197 159.601C55.4657 160.923 64.1795 161.999 57.3237 163.306C51.209 164.478 58.8298 161.851 58.5875 161.854C58.2747 161.864 50.9966 163.42 49.7892 163.356C49.1876 163.312 67.7041 157.403 66.7486 156.798C60.7482 158.286 54.7534 159.787 48.7646 161.299C48.0638 160.379 56.9043 159.212 57.7792 158.912C59.5395 158.302 54.387 158.893 54.5318 158.522C54.6018 158.29 60.3555 156.253 54.9446 157.127C53.0848 157.428 49.39 158.995 42.5452 159.755C65.6024 153.648 49.3531 156.654 48.5843 156.442C47.831 156.229 58.7577 152.909 45.2993 156.055C44.2708 154.194 45.4494 155.36 49.2061 154.158C53.8107 152.69 42.7994 154.425 60.0931 151.141C58.9088 150.416 45.113 153.535 44.3681 153.629C43.7221 153.702 46.6879 152.56 45.5594 152.648C32.2187 153.735 41.289 152.573 37.2839 152.262C36.9267 152.231 24.6074 154.564 33.8755 152.296C50.769 148.177 58.171 147.966 60.4081 144.509C47.5541 146.026 32.7514 151.271 28.9504 152.168C23.1262 153.535 29.0393 151.589 28.284 151.591C28.0221 151.595 23.0055 152.785 22.9278 152.755C18.8483 151.408 45.3097 147.646 53.4311 145.488C51.1626 145.649 48.8943 145.812 46.6262 145.977C49.6033 145.303 52.5817 144.631 55.5613 143.963C41.2142 146.448 55.0028 143.823 58.1673 141.303C58.8774 140.736 49.6832 143.457 60.1011 140.031C52.1853 141.502 54.6128 140.594 47.6087 142.659C47.634 141.913 63.4733 137.599 69.7262 135.881C47.2168 139.956 60.5119 139.733 40.9329 142.647C37.5533 144.31 46.7123 142.092 45.9945 142.403C43.4181 143.514 36.925 144.101 29.7329 147.618C28.5631 148.194 34.0008 147.918 26.2484 149.628C25.3907 149.815 20.2824 150.161 20.338 150.09C20.8524 149.332 25.7859 148.449 25.9301 148.15C26.0643 147.866 20.6508 149.25 20.6171 149.188C20.2756 148.464 25.0949 147.862 24.3563 147.779C22.7618 147.595 2.78797 150.423 28.4778 145.079C7.42715 150.775 25.9419 146.525 34.1513 144.337C36.245 143.779 36.6776 143.203 39.6539 142.372C43.4822 141.301 48.0685 140.514 50.0567 139.988C52.1959 139.421 39.6891 141.043 57.5043 137.46C48.2309 138.36 32.5506 143.059 23.537 144.324C5.34164 146.872 35.5639 139.642 38.7051 138.811C39.5387 138.583 36.5765 138.599 37.1297 138.436C38.0321 138.164 55.3377 134.629 56.9315 133.756C58.5169 132.874 50.6154 135.166 49.9663 134.754C49.5212 134.467 70.2172 129.285 58.8847 131.501C51.0697 133.025 37.0852 137.646 34.3332 136.647C45.7123 133.96 57.1109 131.317 68.5272 128.716C62.1365 129.481 55.7483 130.26 49.3628 131.052C62.144 128.039 73.4304 126.297 85.4211 122.874C55.7233 127.236 94.6122 119.333 94.9978 119.043C95.1117 118.872 83.2493 119.773 81.3341 119.892C91.4185 117.102 122.497 110.396 103.89 112.266C107.284 112.006 115.078 109.306 114.957 109.249C113.765 108.613 96.4082 112.772 99.1011 111.429C102.22 109.865 107.093 110.095 112.156 108.957C138.144 103.151 130.117 100.212 156.48 95.747C155.928 95.6928 155.376 95.6388 154.825 95.5848C183.359 90.2699 211.974 85.2145 240.613 80.4205C251.556 77.0851 281.231 71.166 295.916 68.9287C298.871 68.466 313.479 66.8201 314.594 66.7731C316.658 66.6828 305.533 68.5699 310.639 68.2017C311.715 68.1057 336.311 64.5098 334.439 64.0449C331.673 64.3861 323.122 66.1251 321.685 66.174C311.577 66.3773 387.459 55.744 391.158 54.8353C389.442 54.8339 387.723 54.8339 386.01 54.8337C390.813 54.2562 395.623 53.6846 400.429 53.1205ZM192.576 149.549C189.903 150.832 182.743 151.612 178.619 152.626C172.919 154.026 163.712 158.824 167.355 155.108C175.754 153.232 184.161 151.379 192.576 149.549ZM316.722 128.902C310.958 129.423 315.112 127.076 319.897 126.997C320.429 126.991 324.523 128.199 316.722 128.902ZM256.903 138.195C257.138 138.131 262.061 137.316 262.237 137.312C266.758 137.195 251.917 139.648 256.903 138.195ZM546.255 95.4593C539.948 96.2616 544.694 97.2173 548.548 96.1535C548.79 96.0861 546.67 95.4078 546.255 95.4593ZM541.759 95.9407C536.697 95.1777 527.135 99.0469 534.957 97.8473C535.715 97.7291 541.993 95.9783 541.759 95.9407ZM296.307 131.594C296.864 130.979 302.781 130.249 305.311 129.958C305.319 130.432 298.758 131.126 296.307 131.594ZM445.653 108.916C445.849 108.472 425.333 111.315 424.01 112.049C427.217 111.363 445.466 109.3 445.653 108.916ZM498.255 101.494C497.725 101.488 490.633 102.488 490.885 102.816C494.412 102.84 500.641 101.514 498.255 101.494ZM603.164 89.49C603.541 89.3625 597.98 87.6547 610.756 87.8335C612.631 87.8598 606.075 89.1322 606.741 89.1458C608.136 89.1607 609.233 89.1217 610.11 89.0447C604.253 89.8366 598.156 90.5684 597.551 90.4941C594.708 90.14 602.997 89.5435 603.164 89.49ZM658.182 82.3401C659.362 81.8563 667.136 81.3333 668.913 81.3248C669.219 81.3258 667.988 82.4145 671.471 82.0232C674.267 81.7083 669.991 81.0965 675.463 80.76C680.992 80.4216 673.689 81.7935 674.175 81.801C674.827 81.8067 683.315 80.5958 683.1 81.1979C682.941 81.6411 673.781 82.1727 671.528 82.4721C668.645 82.8534 672.219 83.2434 667.369 83.5346C664.32 83.7193 665.89 82.3124 665.242 82.3083C664.7 82.3045 654.136 84.0198 658.199 82.3426C658.193 82.3418 658.187 82.341 658.182 82.3401ZM611.694 88.8258C611.256 88.9136 610.739 88.9894 610.11 89.0447C610.642 88.9728 611.171 88.8984 611.694 88.8258ZM208.872 145.933C211.894 145.766 203.225 147.881 199.817 148.007C199.683 147.613 208.39 145.959 208.872 145.933ZM617.039 87.2505C625.798 86.681 619.423 87.7553 611.694 88.8258C614.133 88.3377 614.097 87.4443 617.039 87.2505ZM369.641 118.971C370.021 119.009 370.275 119.118 370.341 119.351C369.339 119.237 369.231 119.111 369.641 118.971ZM389.965 116.377C396.805 114.634 382.695 116.736 382.861 117.245C382.932 117.433 389.691 116.446 389.965 116.377ZM554.371 94.6003C553.726 94.6026 563.405 91.2739 549.178 94.5675C556.888 93.9461 548.81 95.1131 548.954 95.292C549.315 95.8065 562.201 93.8025 565.09 93.726C567.222 92.4851 556.511 94.5907 554.388 94.5984C554.382 94.599 554.377 94.5997 554.371 94.6003ZM757.819 74.4812C756.108 75.1931 750.526 75.4261 746.764 75.6818C748.475 74.9649 754.06 74.7271 757.819 74.4812ZM1741.35 100.527C1715.95 97.302 1712.92 94.5017 1736.06 98.8291C1736.51 98.9146 1742.92 100.519 1741.35 100.527ZM1521.79 74.4807C1519.44 73.244 1527.53 73.7578 1532.76 74.6462C1533.95 74.8459 1538.27 76.2774 1533.21 76.0395C1533.49 74.8033 1525.73 73.6484 1521.79 74.4807ZM621.905 86.0919C624.374 85.1483 632.254 84.8564 636.412 84.5547C633.936 85.3665 625.564 85.9383 621.905 86.0919ZM1657.73 87.8709C1655.04 87.4607 1653.09 88.1324 1653.55 88.2635C1655.61 88.8584 1660.75 88.7587 1657.73 87.8709ZM596.629 88.5927C596.227 88.2183 606.558 86.7371 607.384 87.6791C605.161 87.8332 596.913 88.8214 596.629 88.5927ZM750.709 74.7074C749.079 74.6204 757.412 73.6122 759.954 73.6337C759.783 74.085 751.779 74.761 750.709 74.7074ZM1614.24 83.12C1611.84 82.7765 1605.81 82.1011 1605.1 82.3921C1604.23 82.7535 1613.08 83.5553 1614.24 83.12ZM2056.03 168.813C2056.28 169.056 2047.2 167.408 2043.34 165.912C2036.06 163.052 2055.82 168.586 2056.03 168.813ZM1683.23 90.6379C1690.65 92.4766 1682.4 90.5548 1682.61 91.4928C1687.69 92.1833 1700.22 93.9164 1691.71 91.8796C1690.05 91.4842 1685.59 91.0047 1683.23 90.6379ZM1676.3 89.4345C1675.45 89.619 1669.88 89.8345 1674.6 90.3726C1676.79 90.6203 1680.43 90.06 1676.3 89.4345ZM2000.73 152.773C1994.51 150.177 2023.96 158.93 2025.04 159.477C2025.49 159.683 2025.77 159.839 2025.92 159.947C2027.12 160.032 2032.84 161.692 2033.3 162.504C2031.62 161.939 2026.93 160.601 2026.4 160.373C2026.17 160.275 2026.01 160.196 2025.89 160.133C2023.54 159.97 2001.98 153.233 2000.73 152.773ZM1950.78 138.921C1958.61 139.631 1959.43 141.913 1958.77 141.812C1950.4 140.577 1956.09 140.468 1955.85 140.339C1955.31 140.084 1949.32 139.316 1950.8 138.927C1950.79 138.925 1950.78 138.923 1950.78 138.921ZM1990.6 149.663C1990.92 149.72 1997.23 151.499 1997.47 151.602C2002.47 153.66 1984.63 148.632 1990.6 149.663ZM699.66 77.2094C704.39 77.0043 699.83 78.1323 696.674 78.1395C696.414 78.136 695.485 77.3919 699.66 77.2094ZM1672.55 89.1536C1671.53 88.8538 1643.64 84.9045 1645.16 86.2304C1647.63 86.3522 1679.2 90.8756 1672.55 89.1536ZM1463.79 68.5491C1468.75 68.9049 1463.27 69.5715 1460.65 68.9994C1459.68 68.7868 1462.54 68.4602 1463.79 68.5491ZM582.538 89.1429C577.478 90.2723 578.328 88.2349 582.841 88.4117C583.018 88.4186 582.737 89.0987 582.538 89.1429ZM1503.07 72.085C1486.17 71.4062 1490.28 68.354 1512.36 71.2635C1511.65 71.3538 1510.94 71.4442 1510.22 71.5349C1535.95 74.1714 1511.97 71.8975 1505.65 71.5869C1503.29 71.4692 1505.22 72.1801 1503.08 72.0902C1503.08 72.0885 1503.07 72.0867 1503.07 72.085ZM1437.65 66.7457C1421.45 63.3618 1452.68 66.8581 1461.79 67.2128C1452.97 67.5796 1441.54 66.6774 1457.01 68.7142C1434.28 67.3885 1443.78 67.0933 1442.88 66.9497C1441.81 66.7918 1438.32 66.8895 1437.65 66.7457ZM1481.1 69.714C1482.06 69.7141 1489.14 70.7269 1491.7 70.8465C1488.07 71.3708 1474.79 69.7168 1481.1 69.714ZM1897.58 127.249C1898.29 126.756 1899.82 126.606 1905.22 128.032C1903.47 127.972 1899.92 127.478 1897.58 127.249ZM186.611 147.298C182.774 147.981 175.111 149.215 177.573 149.417C177.839 149.421 186.668 147.664 186.611 147.298ZM1591.63 79.3186C1590.84 79.1428 1569.33 76.9412 1576.69 78.3766C1578.94 78.7966 1598.43 80.7093 1591.63 79.3186ZM1701.5 92.543C1699.68 92.285 1692.45 91.4296 1692.31 91.5635C1691.72 92.0033 1700.62 92.9185 1701.5 92.543ZM167.189 150.382C166.676 150.412 155.008 152.822 156.352 152.872C158.905 152.955 168.958 150.266 167.189 150.382ZM716.746 74.2858C717.739 74.1804 719.112 74.7562 719.456 74.7355C720.269 74.6712 738.448 72.9506 731.565 74.3849C730.435 74.6074 704.15 76.4327 700.802 76.6496C699.405 75.8216 710.632 75.767 713.362 75.4461C713.841 75.3879 714.083 74.5764 716.738 74.2905C716.741 74.2889 716.743 74.2874 716.746 74.2858ZM1926.16 132.947C1927.13 132.527 1948.04 137.079 1947.58 137.742C1940.52 136.119 1933.37 134.52 1926.16 132.947ZM1915.61 130.441C1911.36 129.051 1921.52 131.191 1924.7 132.122C1924.61 132.511 1916.18 130.628 1915.61 130.441ZM1661.74 85.1037C1659.59 84.9838 1666.04 86.6674 1664.55 86.6534C1663.6 86.6402 1658.87 85.7236 1657.31 85.8086C1656.87 85.8412 1661.64 87.2567 1663.05 87.3974C1665.05 87.5994 1663.2 86.7161 1665.38 86.984C1672.61 87.8759 1678.92 89.153 1685.63 90.0245C1686.24 90.1019 1681.6 89.0315 1686.76 89.7177C1687.59 89.8267 1692.18 91.1174 1698.49 91.872C1712.72 91.6898 1722.62 95.1662 1740.04 97.0006C1739.43 96.7012 1726.51 94.2588 1725.73 94.1333C1711.14 91.6427 1684.88 88.0431 1669.69 86.1427C1665.76 85.6453 1667.61 86.3283 1665.91 86.1318C1664.57 85.9765 1666.27 85.3552 1661.74 85.1037ZM188.559 146.463C186.58 145.999 180.277 147.733 176.184 148.481C177.762 148.933 184.529 147.041 188.559 146.463ZM1822.1 110.862C1820.03 110.516 1813.63 109.119 1813.05 109.27C1812.32 109.465 1821.57 111.331 1822.1 110.862ZM819.349 67.0501C819.549 67.0143 824.565 66.7446 824.756 66.7594C829.277 67.1395 814.23 67.946 819.349 67.0501ZM939.295 61.0062C943.116 60.7501 946.96 60.3429 948.27 60.9618C945.833 60.9519 938.866 61.4889 939.295 61.0062ZM1105.08 56.9526C1104.28 56.0806 1115.78 56.5638 1117.94 56.634C1117.15 57.0244 1105.66 57.5757 1105.08 56.9526ZM1897.36 124.389C1904.13 125.907 1902.98 124.302 1907.13 125.829C1907.81 126.083 1909.48 129.273 1902.28 126.638C1900.98 126.166 1906.37 126.66 1897.36 124.389ZM1516 71.591C1517.84 71.1612 1523.41 71.8003 1527.16 72.1702C1526.28 72.5252 1518.69 71.7707 1516 71.591ZM145.952 153.898C142.565 153.733 127.802 157.342 131.593 157.126C132.129 157.086 143.855 154.281 145.952 153.898ZM639.383 81.7054C645.555 80.4581 632.621 81.5142 628.61 82.55C630.447 82.3239 638.969 81.7868 639.383 81.7054ZM1065.25 56.9577C1065.55 56.9254 1072.16 56.8866 1072.45 56.9151C1077.87 57.5051 1059.19 57.6195 1065.25 56.9577ZM899.843 61.6803C902.207 61.0306 917.889 60.7383 921.411 61.1221C918.081 62.0316 896.921 62.4756 899.843 61.6803ZM1868.99 118.854C1873.96 119.83 1878.61 120.952 1883.06 122.116C1882.04 122.349 1869.47 119.281 1868.99 118.854ZM1089.51 56.5718C1089.87 56.5714 1090.22 56.6181 1090.56 56.6197C1090.2 56.6047 1089.85 56.587 1089.51 56.5718ZM1759.42 98.9783C1755.26 98.1486 1756 99.0937 1756.26 99.1583C1759.37 99.9108 1764.13 99.9197 1759.42 98.9783ZM183.633 146.166C182.068 145.712 175.259 147.602 171.25 148.202C172.514 148.549 180.441 146.853 183.633 146.166ZM1420.27 64.1661C1415.11 63.0525 1436.38 63.4001 1440.82 64.2169C1441.09 64.7187 1421.05 64.3103 1420.27 64.1661ZM619.955 82.5204C619.479 81.9853 610.614 83.5916 612.54 83.6699C613.76 83.7184 620.241 82.8518 619.955 82.5204ZM1451.64 65.2624C1453.67 65.2204 1458.34 66.1094 1456.66 66.3439C1454.5 66.6439 1451.11 65.2779 1451.64 65.2624ZM1631.19 80.9386C1630.34 80.7479 1618.64 80.0275 1623.38 81.1545C1626.67 81.9372 1627.29 81.1678 1628.07 81.2542C1628.89 81.3417 1647.62 84.5454 1631.19 80.9386ZM1300.41 58.2088C1304.86 58.1292 1310.33 58.5714 1315.01 58.7214C1313.1 59.0082 1302.25 58.7401 1300.41 58.2088ZM654.498 78.9888C653.4 78.8396 623.917 81.5685 640.727 80.654C641.709 80.5932 657.848 79.3802 654.498 78.9888ZM1897.36 124.389C1896.5 124.198 1895.52 123.958 1894.38 123.656C1895.52 123.922 1896.5 124.174 1897.36 124.389ZM1819.55 108.946C1821.26 108.824 1813.09 107.242 1810.8 107.07C1809.92 107.433 1819.32 108.96 1819.55 108.946ZM1315.39 58.1472C1318.1 58.0017 1323 58.4373 1326.34 58.536C1325.76 58.9035 1316.55 58.5835 1315.39 58.1472ZM1126.4 54.7885C1131.75 54.999 1138.31 54.8813 1138.41 54.4028C1138.52 54.4775 1138.78 54.5565 1139.21 54.6357C1139.64 54.7135 1145.35 54.486 1147.82 54.6514C1162.71 55.5634 1090.39 55.3924 1132.32 53.8881C1130.35 54.187 1128.38 54.4872 1126.4 54.7885ZM878.544 61.6135C875.475 61.187 866.993 62.3717 869.217 62.4828C870.767 62.5541 881.617 62.0405 878.544 61.6135ZM995.25 56.514C994.344 56.435 986.079 57.0959 985.875 57.4109C990.647 57.5827 999.383 56.8758 995.25 56.514ZM855.154 62.1946C853.254 62.2133 850.887 63.2895 851.112 63.3177C853.059 63.5495 858.366 62.5382 855.154 62.1946ZM1883.72 118.908C1881 118.061 1871.93 116.896 1869.84 117.112C1869.52 116.924 1868.51 116.561 1866.84 116.034C1866.85 116.035 1866.85 116.036 1866.86 116.037C1864.95 115.177 1793.11 101.568 1841.09 111.697C1842.58 112.02 1840.64 111.081 1846.71 112.34C1847.11 112.424 1847.22 112.908 1848.46 113.168C1851.34 113.759 1866.26 116.99 1869.42 117.27C1869.43 117.358 1869.62 117.477 1870.03 117.635C1873.73 119.044 1885.84 119.559 1883.72 118.908ZM1011.63 55.9721C1009.95 55.8471 1004.71 56.1504 1004.17 56.5674C1006.78 56.6896 1015.53 56.2626 1011.63 55.9721ZM653.429 77.4359C650.006 77.4261 641.463 78.8689 644.094 78.9451C645.708 78.9887 657.377 77.4421 653.429 77.4359ZM958.784 57.851C978.334 57.628 963.446 57.6451 966.417 56.9502C963.873 57.2486 961.329 57.5488 958.784 57.851ZM1970.55 140.56C1967.66 139.681 1971.37 139.427 1974.61 140.917C1975.61 141.383 1972.24 141.068 1970.55 140.56ZM2103.43 180.797C2101.26 178.894 2113.25 183.969 2108.25 182.87C2108.02 182.809 2103.53 180.87 2103.43 180.797ZM2011.39 150.757C2009.21 150.871 2007.92 150.583 2002.33 148.852C2010.7 150.982 2003.17 148.227 2011.39 150.757ZM1138.35 54.3275C1138.39 54.3558 1138.42 54.3767 1138.41 54.4028C1138.37 54.3771 1138.35 54.3527 1138.35 54.3275ZM836.893 63.4367C834.423 62.9879 827.595 63.4483 829.666 63.921C829.867 63.9634 835.921 63.9333 836.893 63.4367ZM1869.84 117.112C1870.15 117.282 1869.97 117.316 1869.42 117.27C1869.41 117.187 1869.56 117.141 1869.84 117.112ZM873.563 60.8888C873.343 61.3418 883.786 60.9727 884.2 60.9022C890.146 59.8317 877.875 60.6305 873.563 60.8888ZM584.797 83.7549C584.267 83.8584 587.837 84.6241 589.903 83.9531C591.502 83.4325 586.781 83.3634 584.797 83.7549ZM2030.76 156.088C2033.93 157.031 2038.34 158.369 2038.99 159.137C2036.93 158.416 2030.58 156.449 2030.76 156.088ZM2099.09 178.428C2095.34 177.748 2087.16 174.853 2081.86 172.932C2082.07 172.095 2095.75 177.403 2099.09 178.428ZM1892.41 121.06C1892.16 120.968 1884.11 119.017 1885.1 119.802C1886.56 120.945 1894.62 121.842 1892.41 121.06ZM600.841 82.6603C604.48 81.8899 595.889 81.5904 592.102 82.9206C590.158 83.5998 600.228 82.7873 600.841 82.6603ZM815.511 63.978C810.654 64.6136 822.779 64.4231 824.428 63.7348C822.181 63.8264 817.237 63.7518 815.511 63.978ZM981.513 55.4101C966.08 54.22 974.559 57.0391 977.277 56.6756C977.66 56.6236 981.89 55.4375 981.513 55.4101ZM107.884 158.207C105.801 158.881 113.919 158.064 114.834 157.302C115.398 156.825 109.216 157.774 107.884 158.207ZM1213.24 54.3043C1212.59 54.3009 1211.95 54.2978 1211.31 54.2942C1211.79 54.2728 1212.42 54.2722 1213.24 54.3043ZM771.068 64.72C782.022 66.3364 780.755 64.5825 781.693 64.5248C783.71 64.4088 788.508 64.7246 792.335 64.3576C787.962 64.926 783.558 65.5021 779.227 66.0785C782.661 65.9864 812.909 64.8437 813.494 64.437C814.364 63.825 804.899 64.6128 804.618 64.5845C804.216 64.5413 802.633 63.1041 801.749 63.1042C800.294 63.0926 775.078 64.7976 771.068 64.72ZM949.313 56.8123C951.802 56.9 952.53 57.4828 953.676 57.2939C954.067 57.2293 954.108 56.6459 955.443 56.4457C953.4 56.5667 951.357 56.6889 949.313 56.8123ZM751.902 68.2983C748.792 67.8192 762.516 67.058 762.959 67.1096C765.337 67.4157 754.445 68.6842 751.902 68.2983ZM868.321 60.6516C867.818 60.6345 857.209 60.9946 857.342 61.3845C860.117 61.5253 874.307 60.8491 868.321 60.6516ZM957.097 56.3447C960.818 56.2739 967.856 56.6121 967.02 55.7659C967.015 55.7661 967.009 55.7663 967.004 55.7665C963.704 55.956 960.401 56.1488 957.097 56.3447ZM613.242 79.5181C606.267 78.833 609.685 80.2503 615.779 80.0808C617.548 79.2716 614.386 79.629 613.242 79.5181ZM591.258 80.7682C589.33 80.7113 569.741 83.1219 572.815 83.532C573.908 83.6729 585.115 81.7868 585.64 81.7846C586.436 81.7754 582.926 82.9724 588.922 82.1666C588.541 81.929 591.918 80.7819 591.258 80.7682ZM607.495 79.2117C600.592 78.8611 599.269 80.9684 604.378 80.4404C606.374 80.2362 608.48 79.2638 607.495 79.2117ZM635.273 76.5818C632.799 76.6372 626.242 77.0139 621.83 78.1125C627.825 77.5651 633.869 77.0232 639.899 76.4932C640.558 76.0589 637.436 76.5334 635.257 76.5835C635.263 76.5829 635.268 76.5824 635.273 76.5818ZM2138.7 188.213C2134.04 185.719 2145.33 190.086 2145.72 190.414C2146.94 191.407 2140.8 189.324 2138.7 188.213ZM62.6465 149.697C61.1196 149.804 59.9961 149.305 56.8217 150.392C60.212 150.197 63.6025 150.005 66.9934 149.817C69.2788 148.062 64.3156 149.581 62.6465 149.697ZM49.1707 148.058C49.6272 147.927 46.6893 146.638 52.9427 146.55C57.1623 146.484 35.3846 152.167 31.249 152.258C35.5357 150.887 45.2391 149.175 49.1707 148.058ZM8.92351 148.767C8.63584 148.677 16.9194 146.544 17.9092 146.429C23.1004 145.816 10.4708 149.234 8.92351 148.767ZM35.6105 143.062C31.6134 143.582 40.2381 141.403 42.8728 141.036C43.1997 141.323 36.2266 142.977 35.6105 143.062ZM2096.93 143.286C2093.23 140.64 2088.61 141.989 2095.16 143.651C2095.48 143.731 2097.09 143.407 2096.93 143.286ZM16.6442 145.033C20.6372 144.496 12.026 146.71 9.39952 147.102C9.0798 146.813 16.036 145.116 16.6442 145.033ZM2095.02 139.385C2089.8 136.615 2090.74 140.223 2091.39 140.576C2094.09 142.008 2104.13 144.223 2106.16 144.638C2091.65 140.015 2097.45 140.698 2095.02 139.385ZM2068.8 132.634C2063.67 131.333 2076.3 136.059 2079.27 136.145C2076.62 135.308 2070.22 132.984 2068.8 132.634ZM2037.93 122.079C2035.18 121.141 2026.69 118.402 2025.33 118.525C2028.22 119.253 2036.65 122.218 2037.93 122.079ZM2031.94 118.794C2027.67 116.865 2026.07 118.415 2031.36 119.348C2031.56 119.385 2032.09 118.877 2031.94 118.794ZM2007.81 111.254C2005.15 109.729 2001.39 110.648 2006.02 111.96C2007.39 112.347 2008.09 111.422 2007.81 111.254ZM2089.16 133.855C2085.17 132.161 2079.45 131.667 2088.16 134.741C2085.03 133.902 2081.88 133.069 2078.71 132.242C2090.01 136.774 2089.7 134.748 2092.96 135.93C2097.48 137.592 2096.6 138.923 2095.54 139.065C2099.72 139.487 2114.8 144.788 2124.28 148.178C2116.03 144.655 2104.02 139.628 2096.03 136.626C2093.79 135.777 2091.44 135.423 2089.51 134.72C2086.41 133.591 2089.38 133.954 2089.17 133.861C2089.17 133.859 2089.16 133.857 2089.16 133.855ZM1975.28 102.653C1967.16 99.7081 1971.98 102.857 1976.75 103.723C1976.96 103.748 1975.48 102.726 1975.28 102.653ZM4.15397 142.044C15.6316 140.209 7.63082 143.079 30.9518 136.175C21.2507 139.513 30.5786 137.084 28.7364 137.964C27.2574 138.663 21.36 139.697 24.9093 139.631C20.2748 139.864 1.00294 144.528 0.118339 144.614C0.126431 144.612 0.134522 144.61 0.142614 144.609C-0.391258 144.656 0.493749 142.635 4.15397 142.044ZM2039.28 117.349C2037.08 114.32 2034.96 117.465 2029.84 114.014C2021.61 114.464 2050.51 120.057 2053.03 123.339C2023.14 113.981 2072.09 131.572 2052.26 121.875C2068.98 128.365 2057.99 123.197 2060.76 123.59C2063.73 124.013 2073.09 127.545 2072.86 126.584C2072.86 126.583 2072.85 126.581 2072.85 126.579C2067.03 124.765 2061.15 122.973 2055.19 121.203C2060.45 124.744 2048.52 120.484 2044.76 117.811C2042.94 117.655 2041.11 117.501 2039.28 117.349ZM2072.26 129.341C2071.73 129.108 2058.95 125.33 2059.64 125.946C2061.33 126.687 2079.29 132.171 2072.26 129.341ZM2128.81 148.684C2124.22 146.932 2117 143.892 2114.45 143.71C2118.76 145.27 2126.13 148.401 2128.81 148.684ZM1888.72 81.2165C1882.52 80.5043 1901.2 84.5765 1895.93 82.7876C1895.67 82.699 1889.03 81.251 1888.72 81.2165ZM2025.57 113.72C2019.82 111.359 2022.03 114.291 2026.57 114.989C2026.83 115.029 2025.83 113.828 2025.57 113.72ZM13.249 139.669C13.5308 139.039 30.0309 135.677 32.946 135.027C31.3969 135.882 12.9187 140.376 13.249 139.669ZM2137.62 149.883C2129.28 144.521 2115.67 141.946 2114.57 141.507C2113.27 140.981 2115.63 140.928 2115.34 140.797C2114.7 140.491 2100.45 135.507 2099.69 135.333C2099.18 135.204 2101.39 137.243 2098.3 136.57C2104.31 137.831 2130.24 147.794 2131.79 148.329C2132.88 148.638 2125.36 144.391 2137.61 149.877C2137.61 149.879 2137.62 149.881 2137.62 149.883ZM2111.33 140.06C2114.69 141.8 2104.77 138.309 2102.38 137.29C2097.13 135.005 2110.93 139.831 2111.33 140.06ZM2087.22 131.203C2086.13 130.703 2075.38 127.056 2074.4 127.342C2079.17 129.635 2089.82 132.35 2087.22 131.203ZM1969.67 97.2831C1966.93 96.6684 1959.47 94.3941 1958.91 94.7665C1961.7 95.3664 1969.13 97.6495 1969.67 97.2831ZM68.4533 123.001C63.7564 123.595 74.4063 121.125 77.5563 120.657C77.8 120.937 68.8517 122.949 68.4533 123.001ZM2025.85 108.927C2024.43 108.279 1991.09 99.5526 1986.11 98.5951C1990.84 100.109 2023.77 109.131 2025.14 109.422C2025.58 109.492 2026.05 109.008 2025.85 108.927ZM2097.55 131.141C2100.8 131.496 2102.46 132.996 2102.84 133.137C2106.51 134.528 2114.12 137.084 2112.23 137.145C2105.94 134.56 2091.08 130.435 2097.55 131.141ZM1968.11 93.5297C1956.79 91.001 1978.21 97.1008 1975.54 95.6719C1975.38 95.5804 1969.29 93.7893 1968.11 93.5297ZM2029.54 109.766C2032.32 109.855 2065.6 120.415 2070.59 122.134C2065.6 121.67 2062.08 119.699 2055.68 117.787C2053.96 117.274 2054.29 117.843 2054.1 117.787C2051.11 116.893 2053.49 117.082 2051.65 116.512C2050.59 116.128 2025.68 109.471 2029.54 109.766ZM2099.43 131.261C2101.51 131.491 2121.54 138.469 2122.44 138.971C2128.13 141.887 2101.1 131.896 2099.43 131.261ZM2026.82 107.991C2030.47 107.708 2047.29 113.528 2035.56 110.734C2034.45 110.467 2029.91 108.586 2026.82 107.991ZM1969.6 92.6731C1969.07 92.4939 1957.33 89.3605 1957.01 89.7011C1958.73 90.2528 1975.8 94.6289 1969.6 92.6731ZM1975.99 92.8877C1975.7 92.8265 1978.26 94.2569 1972.8 92.7863C1972.35 92.6645 1971.72 91.608 1964.7 90.2034C1963.28 89.9197 1960.95 89.9389 1961.1 90.012C1968.09 93.073 1990.18 96.0344 1975.99 92.8877ZM2100.03 130.731C2099.05 130.005 2102.07 129.905 2104.28 131.258C2105.22 131.84 2103.1 131.78 2100.03 130.731ZM1931.84 83.3209C1938.86 84.2397 1917.39 79.2549 1916.25 79.2053C1916.89 79.751 1931.08 83.2009 1931.84 83.3209ZM78.1855 115.744C78.18 115.745 78.1746 115.746 78.1692 115.747C83.997 114.658 80.5196 115.956 80.7946 115.914C93.3093 114.079 89.7812 113.573 91.683 113.021C95.7634 111.844 95.4014 113.45 102.269 111.386C90.8959 114.693 101.34 112.123 101.776 112.579C103.514 114.437 86.1812 114.791 80.5213 116.472C79.7326 116.703 85.7975 116.127 83.784 116.756C77.2545 118.788 55.7893 119.969 78.1855 115.744ZM2106.15 131.814C2108.99 132.081 2128.45 139.855 2123.05 138.448C2122.01 138.102 2102.09 131.344 2106.15 131.814ZM1140.16 6.23179C1145.16 5.67223 1133.58 5.03504 1131.42 5.47578C1130.36 5.69268 1137.97 6.47559 1140.16 6.23179ZM1058.67 4.60999C1052.72 4.82413 1046.49 7.25266 1053.88 6.75743C1054.67 6.70348 1059.35 4.91821 1058.67 4.60999ZM1449.88 14.6972C1443.65 13.465 1443.93 15.0204 1448.54 15.2975C1450.16 15.3962 1450.07 14.7362 1449.88 14.6972ZM1212.5 5.68875C1211.88 5.62556 1204.7 5.63364 1204.96 5.99022C1207.61 6.23087 1216.51 6.11008 1212.5 5.68875ZM1451.88 14.6103C1448.15 14.6418 1454.47 16.1668 1459.07 15.3934C1456.77 15.3256 1452.27 14.6069 1451.88 14.6103ZM2015.4 101.259C2012.25 101.035 2003.8 98.5299 1998.82 97.3227C1998.52 96.386 2011.92 100.431 2015.4 101.259ZM1083.87 5.16882C1078.26 5.81223 1090.34 6.13665 1089.24 5.39178C1089.09 5.35159 1084.07 5.14125 1083.87 5.16882ZM1650.2 32.6408C1646.03 32.6329 1659.02 34.8432 1655.53 33.5645C1655.36 33.5078 1650.43 32.64 1650.2 32.6408ZM1706.67 40.1118C1703.43 39.4978 1690.54 37.8377 1695.51 38.9772C1696.28 39.149 1706.3 40.5086 1706.67 40.1118ZM91.905 112.375C90.0915 111.898 99.6581 110.099 101.053 109.961C101.6 109.909 94.2674 112.991 91.905 112.375ZM1409.62 12.1203C1406.4 12.0425 1398.05 11.3904 1396.54 11.7529C1400.51 11.8682 1410.63 13.0521 1409.62 12.1203ZM1109.7 4.91445C1104.78 4.03722 1096.34 4.20636 1098.44 5.37659C1107.74 5.21514 1097.29 4.31111 1109.7 4.91445ZM1472.76 15.0583C1470.19 14.8056 1468.12 15.807 1468.41 15.881C1471.18 16.5874 1475.3 15.6843 1472.76 15.0583ZM1279 6.58145C1278.87 6.08768 1270.6 6.09188 1271.69 6.43564C1272.05 6.54911 1279.11 6.9785 1279 6.58145ZM1909.28 74.976C1905.65 73.7347 1917.11 75.7688 1920.31 77.0209C1921.78 78.1074 1909.75 75.122 1909.28 74.976ZM1544.24 21.0576C1544.7 20.3661 1531.72 19.6425 1536.77 20.6861C1538.03 20.9458 1544.09 21.286 1544.24 21.0576ZM1667.8 33.2841C1659.09 33.0472 1695.18 38.2426 1685.81 35.9696C1685.17 35.7976 1668.58 33.2968 1667.8 33.2841ZM1726.93 41.7042C1725.44 41.3978 1726.54 39.0897 1732.58 40.9088C1733.37 41.146 1729.49 41.2367 1730.13 41.478C1730.52 41.6115 1743.83 43.9036 1744.44 43.9443C1745.11 43.9785 1744.45 43.0912 1745.13 43.1042C1745.9 43.1181 1753.97 45.0228 1758.22 45.6862C1766.18 46.9242 1767.34 46.4581 1767.97 46.554C1769.94 46.859 1773.18 47.8354 1777.15 48.4712C1797.25 51.6514 1827.03 56.2849 1842.82 60.6588C1828.83 57.4968 1815.41 55.7126 1801.64 53.5601C1805.94 52.8984 1781.05 51.1769 1795.64 52.0226C1788.93 51.0874 1731.8 42.5592 1726.94 41.7066C1726.94 41.7058 1726.93 41.705 1726.93 41.7042ZM1035.13 4.38355C1038.79 3.46786 1019.95 4.08067 1018.37 5.09091C1020.86 5.15715 1034.68 4.48328 1035.13 4.38355ZM1121.82 1.20785C1123.57 1.05747 1125.22 -0.581308 1134.37 0.219219C1134.37 0.2192 1134.38 0.219181 1134.39 0.219162C1137.06 0.453979 1134.02 0.856478 1134.51 0.996511C1134.69 1.05262 1143.01 1.84747 1136.1 1.98898C1125.55 2.21435 1135.11 0.781246 1129.48 0.780327C1128.79 0.778362 1118.13 1.70587 1118.75 1.89795C1118.81 1.91986 1122.02 1.7175 1122.55 1.79557C1124.56 2.08812 1123.58 2.59997 1123.87 2.62283C1124.8 2.67389 1141.63 1.76558 1144.07 2.52719C1144.88 2.7535 1117.24 3.39473 1116.14 3.29333C1115.46 3.21763 1115.74 1.80754 1115.03 1.67333C1114.67 1.60366 1103.51 2.2121 1102.05 2.09851C1101.63 2.06472 1101.31 2.02719 1101.07 1.99601C1102.77 2.41502 1092.64 2.47972 1092.94 1.98716C1093.12 1.79094 1100.09 1.83492 1100.34 1.86763C1100.45 1.88094 1100.55 1.8998 1100.64 1.9126C1099.2 1.3827 1122.75 1.24516 1117.66 0.49147C1124.48 0.0225658 1116.7 1.655 1121.82 1.20785ZM1154.48 0.288498C1153.78 0.435429 1153.08 0.582506 1152.38 0.729729C1164.23 0.381252 1178.21 1.15967 1191.93 1.28205C1195.42 1.31473 1191.41 0.37014 1195.99 0.662472C1199.65 0.897284 1203.68 1.78439 1201.69 1.9491C1201.21 1.98936 1193.76 1.36299 1190.02 1.38784C1178.99 1.46189 1181.76 2.26674 1181.12 2.2813C1180.41 2.29746 1173.45 1.70611 1169.64 1.71389C1160.04 1.73583 1155.73 2.19594 1142.79 1.57565C1150.26 1.06249 1146.17 -0.0525303 1154.48 0.288498ZM1598.96 24.1203C1599.46 23.6796 1607.22 24.9286 1610.05 25.1613C1609.56 25.5997 1601.81 24.3416 1598.96 24.1203ZM438.061 49.169C435.794 50.2799 453.621 48.0896 448.841 48.0569C447.784 48.047 440.299 48.8701 438.061 49.169ZM518.21 39.4422C520.57 38.9354 510.894 39.5152 510.986 40.1317C511.024 40.3266 517.907 39.5065 518.21 39.4422ZM1308.74 3.76582C1309.2 3.75492 1315.85 4.16254 1316.06 4.21176C1320.44 5.21115 1298.53 3.97708 1308.74 3.76582ZM615.629 27.7129C607.357 29.0705 632.442 26.7905 624.713 26.8885C624.316 26.8934 616.029 27.6453 615.629 27.7129ZM650.537 24.1615C648.539 24.3759 639.622 24.9652 639.528 25.2219C639.39 25.6299 649.591 24.9278 650.537 24.1615ZM1474.72 12.159C1473.82 11.1856 1485.52 12.7176 1489.59 12.9141C1490.5 13.8863 1478.83 12.3325 1474.72 12.159ZM1400.54 6.84911C1450.07 8.9682 1439.11 10.2259 1397.55 7.13022C1397.52 6.54803 1397.4 6.72523 1400.54 6.84911ZM1464 10.846C1462.15 11.2987 1456.5 10.7427 1452.67 10.4439C1453.39 10.0862 1461.24 10.7583 1464 10.846ZM416.688 50.8552C419.669 49.6946 433.441 48.7121 431.055 49.3458C430.499 49.4821 415.612 51.4071 416.688 50.8552ZM1312.95 3.13499C1311.82 2.21149 1326.79 3.10508 1327.91 3.34932C1332.5 4.30362 1314.18 2.97401 1312.95 3.13499ZM1545.09 17.0263C1547.78 16.5731 1555.18 17.5993 1559.95 18.0538C1557.73 18.4361 1549.16 17.3991 1545.09 17.0263ZM1510.31 13.5401C1510.58 13.5339 1517.37 14.1471 1517.66 14.2043C1523.13 15.3228 1504.1 13.6068 1510.31 13.5401ZM68.7482 111.001C68.9616 110.932 73.9478 109.908 74.1232 109.897C78.6978 109.592 63.7483 112.662 68.7482 111.001Z" fill="#FC7A87"/>
</svg>
